<?xml version="1.0" standalone="no"?>
<!DOCTYPE svg PUBLIC "-//W3C//DTD SVG 20010904//EN"
 "http://www.w3.org/TR/2001/REC-SVG-20010904/DTD/svg10.dtd">
<svg version="1.0" xmlns="http://www.w3.org/2000/svg"
 width="744.000000pt" height="744.000000pt" viewBox="0 0 744.000000 744.000000"
 preserveAspectRatio="xMidYMid meet">
<metadata>
Created by potrace 1.14, written by Peter Selinger 2001-2017
</metadata>
<g transform="translate(0.000000,744.000000) scale(0.100000,-0.100000)"
fill="#000000" stroke="none">
<path d="M2277 6568 c-33 -18 -17 -98 20 -98 19 0 37 44 29 73 -7 29 -26 39
-49 25z m35 -32 c7 -34 -9 -61 -28 -45 -14 12 -19 51 -7 62 14 14 31 6 35 -17z"/>
<path d="M2176 6478 c-19 -27 -20 -96 -2 -120 20 -27 62 -23 82 7 18 28 15 95
-6 120 -18 22 -57 18 -74 -7z m64 -17 c15 -29 12 -66 -8 -91 -17 -21 -19 -21
-35 -5 -20 19 -23 85 -5 103 18 18 36 15 48 -7z"/>
<path d="M3884 6445 c-30 -30 -26 -55 17 -100 36 -39 36 -47 -1 -85 -38 -39
-40 -83 -5 -130 13 -18 32 -56 41 -84 9 -28 36 -86 60 -130 32 -57 44 -89 44
-120 0 -33 7 -50 39 -89 47 -57 55 -77 47 -122 -5 -23 -19 -44 -47 -66 -22
-17 -46 -46 -53 -64 -9 -22 -34 -46 -70 -69 -30 -19 -62 -49 -71 -65 -8 -17
-23 -35 -32 -40 -16 -9 -16 -10 -2 -11 40 0 78 22 89 53 16 47 33 65 66 71 34
6 80 57 92 101 7 27 12 30 48 30 38 0 39 1 36 33 -1 19 5 46 14 62 17 27 16
30 -10 82 -16 29 -41 67 -58 84 -25 27 -28 37 -23 66 5 28 0 47 -25 94 -18 32
-39 67 -47 76 -8 9 -13 23 -10 30 2 7 -4 30 -15 51 -10 21 -16 42 -13 47 3 5
-6 17 -20 26 -40 26 -49 51 -30 80 8 13 20 24 25 24 21 0 90 35 90 46 0 6 -11
16 -24 22 -40 18 -106 83 -106 103 0 26 -16 24 -46 -6z"/>
<path d="M3965 6450 c-6 -10 56 -67 88 -79 15 -6 27 -17 27 -25 0 -8 3 -21 6
-29 4 -11 -12 -24 -60 -46 -36 -17 -66 -34 -66 -38 0 -4 14 -19 31 -33 16 -14
32 -37 34 -50 7 -50 29 -105 84 -205 32 -58 36 -74 28 -93 -9 -18 -6 -27 14
-50 39 -43 65 -84 79 -124 12 -33 12 -39 -4 -57 -14 -15 -17 -29 -12 -54 9
-49 -10 -69 -75 -76 -4 -1 -22 -26 -40 -56 -27 -45 -41 -57 -71 -66 -31 -8
-42 -18 -59 -54 -18 -38 -28 -47 -75 -65 -30 -11 -63 -20 -74 -20 -10 0 -21
-4 -24 -9 -7 -10 -73 -25 -99 -22 -11 2 -26 -8 -35 -21 -23 -30 -43 -110 -33
-123 52 -64 64 -142 30 -199 -15 -27 -19 -43 -13 -73 4 -21 11 -44 17 -51 5
-7 13 -30 17 -52 10 -53 -11 -73 -66 -65 -34 6 -43 2 -72 -24 -18 -17 -37 -31
-41 -31 -4 0 -22 -13 -39 -30 -33 -31 -56 -38 -67 -20 -3 6 -19 10 -35 10
l-29 0 1 -70 c1 -68 0 -72 -35 -108 -33 -34 -35 -41 -33 -90 2 -39 9 -59 26
-77 13 -14 21 -25 17 -25 -4 0 -2 -11 3 -25 7 -19 6 -36 -5 -62 -8 -20 -13
-38 -11 -41 8 -8 -22 -59 -39 -65 -8 -4 -15 -18 -15 -32 0 -21 5 -25 28 -25
36 0 51 -11 49 -35 -1 -14 5 -21 22 -23 33 -5 91 -50 91 -72 0 -17 30 -50 46
-50 17 0 84 -67 84 -84 0 -22 26 -49 68 -70 21 -11 32 -24 32 -38 0 -21 34
-72 73 -108 21 -21 71 -27 82 -11 3 6 18 6 37 1 24 -8 34 -6 43 6 15 21 48 11
69 -21 9 -13 41 -43 72 -66 42 -31 54 -45 48 -57 -4 -10 -7 -30 -6 -46 1 -16
-3 -36 -7 -45 -6 -10 -5 -25 3 -39 l12 -23 26 21 c16 12 29 16 33 10 8 -14
-13 -50 -30 -50 -7 0 -24 -14 -36 -32 -13 -17 -25 -26 -27 -20 -5 17 -25 15
-43 -5 -8 -10 -29 -29 -47 -42 -23 -17 -36 -39 -47 -80 -9 -31 -20 -65 -25
-76 -6 -11 -9 -29 -9 -40 1 -11 -2 -28 -6 -37 -5 -12 1 -25 19 -41 28 -26 35
-72 16 -108 -8 -14 -7 -27 5 -48 8 -17 15 -46 15 -65 0 -19 5 -38 11 -42 12
-7 89 63 89 82 0 21 31 38 75 42 36 3 46 0 55 -17 8 -15 21 -21 46 -21 24 0
36 -5 40 -17 30 -90 42 -94 100 -36 23 22 44 34 66 35 18 1 44 2 58 3 46 2 95
45 122 106 24 53 25 60 11 86 -15 28 -10 73 9 85 8 4 7 19 -4 50 -9 23 -16 63
-17 87 -1 25 -5 49 -8 54 -3 5 -28 7 -54 4 -55 -7 -64 6 -29 38 15 14 17 21 9
31 -6 8 -9 31 -7 51 4 27 -2 52 -18 85 -13 26 -24 54 -24 62 0 9 -9 20 -20 26
-11 6 -20 17 -20 24 0 8 -10 20 -22 29 -20 13 -21 18 -10 34 6 10 17 28 22 41
7 16 16 22 28 18 28 -9 82 30 82 59 0 14 8 29 20 35 11 6 20 17 20 24 0 7 18
28 40 47 44 37 48 50 25 69 -11 9 -13 16 -5 24 14 14 12 26 -5 26 -8 0 -15 6
-15 14 0 17 81 48 116 44 24 -3 28 2 41 46 10 34 11 52 4 59 -16 16 -13 52 4
67 11 9 20 8 43 -9 16 -11 35 -27 42 -36 12 -14 16 -13 35 11 19 24 30 28 76
29 40 0 63 7 88 24 31 23 32 26 27 75 -4 47 -15 110 -32 194 -6 33 6 120 29
196 10 36 9 40 -11 54 -15 10 -22 24 -22 48 0 25 -7 38 -26 50 -18 13 -28 14
-33 6 -4 -8 -33 -10 -86 -7 -67 3 -82 8 -94 25 -7 11 -22 20 -32 20 -23 0 -34
37 -25 89 5 33 3 39 -19 49 -35 16 -57 64 -49 110 7 44 58 106 80 98 27 -10
14 23 -13 36 -16 7 -35 28 -43 45 -8 18 -21 33 -28 33 -7 0 -15 7 -19 16 -3 8
-11 13 -18 10 -24 -9 -82 56 -99 111 -22 71 -20 89 11 129 l26 35 -34 30 c-19
17 -46 37 -61 47 -30 17 -34 31 -19 60 5 9 16 33 25 53 9 20 23 40 32 43 14 5
12 9 -9 27 -15 11 -29 35 -33 54 -3 19 -12 39 -20 46 -8 6 -14 17 -14 24 0 7
-18 35 -40 61 -30 37 -40 57 -40 84 0 28 -8 43 -31 66 -17 16 -38 44 -45 61
-11 25 -20 32 -37 30 -18 -2 -22 3 -22 27 -1 23 -8 33 -33 44 -34 16 -43 47
-20 70 9 9 8 16 -5 30 -9 10 -17 23 -17 29 0 5 -9 18 -20 28 -11 10 -20 22
-20 27 0 15 54 57 82 63 29 7 55 31 44 43 -10 9 -265 11 -271 2z m862 -2166
c8 -22 -15 -43 -27 -24 -7 11 -10 11 -10 2 0 -7 -4 -10 -10 -7 -16 10 -12 33
8 38 30 8 32 7 39 -9z m-436 -1344 c11 0 33 -13 49 -29 27 -25 29 -30 14 -41
-9 -8 -13 -22 -10 -34 5 -20 -21 -76 -36 -76 -4 0 -8 -9 -8 -20 0 -13 -7 -20
-19 -20 -10 0 -21 -9 -24 -20 -5 -20 5 -25 48 -22 18 2 17 0 -5 -18 -29 -23
-41 -25 -57 -9 -6 6 -17 8 -24 3 -22 -13 -50 -12 -56 3 -8 19 -19 16 -49 -14
-17 -18 -24 -22 -21 -11 3 10 2 20 -3 23 -11 7 -3 90 10 115 5 9 5 22 -1 31
-13 21 -11 46 7 64 9 8 14 21 11 29 -5 14 84 42 101 32 5 -3 18 4 28 15 10 11
20 16 22 10 2 -6 12 -11 23 -11z m139 -51 c0 -6 -6 -9 -14 -6 -7 3 -19 0 -25
-6 -9 -9 -11 -8 -6 6 8 19 45 24 45 6z"/>
<path d="M4241 6400 c-13 -11 -31 -20 -40 -20 -9 0 -27 -9 -41 -20 l-25 -19
23 -16 c12 -9 22 -23 22 -32 0 -9 22 7 55 40 37 37 53 60 49 71 -8 20 -14 20
-43 -4z"/>
<path d="M2030 6342 c-72 -36 -104 -120 -98 -253 7 -139 61 -209 162 -209 54
0 100 34 127 95 26 57 26 223 0 280 -24 53 -64 91 -102 99 -45 9 -50 8 -89
-12z m91 -62 c37 -20 53 -69 53 -165 1 -126 -30 -174 -104 -163 -44 6 -65 51
-69 149 -3 100 7 138 47 169 28 22 45 25 73 10z"/>
<path d="M4190 6200 c0 -5 7 -10 16 -10 8 0 12 5 9 10 -3 6 -10 10 -16 10 -5
0 -9 -4 -9 -10z"/>
<path d="M1852 6178 c-14 -14 -16 -76 -3 -96 14 -23 53 -10 63 20 17 50 -28
108 -60 76z m43 -53 c0 -42 -19 -54 -38 -24 -15 24 0 71 21 67 13 -2 17 -13
17 -43z"/>
<path d="M1775 6090 c-3 -5 1 -10 9 -10 12 0 16 -10 16 -40 0 -30 -4 -40 -16
-40 -8 0 -12 -4 -9 -10 3 -5 19 -10 36 -10 16 0 29 5 29 10 0 6 -7 10 -15 10
-11 0 -15 12 -15 50 0 37 -4 50 -14 50 -8 0 -18 -4 -21 -10z"/>
<path d="M1882 6023 c11 -3 15 -11 12 -21 -5 -14 -4 -14 4 -2 13 18 6 30 -16
29 -16 -1 -16 -2 0 -6z"/>
<path d="M1891 5968 c0 -9 -7 -19 -13 -21 -7 -3 3 -5 22 -5 19 0 27 2 18 5 -9
2 -19 12 -21 21 -4 16 -5 16 -6 0z"/>
<path d="M1710 5899 c-155 -41 -178 -57 -150 -110 13 -24 59 -25 124 -3 26 9
50 14 53 11 7 -8 14 -464 7 -482 -5 -11 -25 -15 -84 -15 -64 0 -80 -3 -95 -20
-23 -25 -13 -65 17 -74 40 -10 418 -7 439 4 25 14 24 45 -1 70 -17 17 -33 20
-98 20 l-78 0 1 315 c0 204 -4 315 -10 315 -5 -1 -62 -15 -125 -31z"/>
<path d="M1892 5904 c-16 -11 -22 -25 -22 -54 0 -56 38 -88 68 -58 18 18 15
94 -4 112 -19 19 -15 19 -42 0z m43 -54 c0 -39 -3 -45 -22 -48 -28 -4 -41 37
-24 74 19 43 46 27 46 -26z"/>
<path d="M2184 5885 c-3 -8 -4 -20 -2 -27 3 -7 7 -1 10 15 6 29 1 36 -8 12z"/>
<path d="M2221 5864 c0 -11 3 -14 6 -6 3 7 2 16 -1 19 -3 4 -6 -2 -5 -13z"/>
<path d="M1976 5852 c-9 -27 3 -54 23 -50 22 5 22 62 -1 66 -9 2 -19 -5 -22
-16z m34 -17 c0 -26 -14 -33 -25 -15 -9 14 1 40 15 40 5 0 10 -11 10 -25z"/>
<path d="M2088 5828 c-28 -7 -38 -15 -38 -29 0 -17 5 -19 35 -13 l35 6 0 -90
0 -91 -32 -3 c-22 -2 -34 -9 -36 -21 -3 -16 4 -18 85 -15 70 2 88 6 88 18 0
10 -12 16 -32 18 l-33 3 0 115 c0 127 3 122 -72 102z"/>
<path d="M2198 5833 c7 -3 16 -2 19 1 4 3 -2 6 -13 5 -11 0 -14 -3 -6 -6z"/>
<path d="M1940 5751 c-30 -9 -55 -22 -54 -29 1 -7 2 -17 3 -23 1 -8 16 -9 46
-5 l45 7 0 -115 0 -116 -44 0 c-32 0 -46 -5 -50 -17 -11 -29 8 -34 120 -31
101 3 109 4 109 23 0 16 -8 21 -42 23 l-43 3 0 150 c0 169 7 160 -90 130z"/>
<path d="M2058 5703 c7 -3 16 -2 19 1 4 3 -2 6 -13 5 -11 0 -14 -3 -6 -6z"/>
<path d="M2177 5703 c-13 -12 -7 -61 9 -74 14 -11 18 -10 30 6 8 10 14 26 13
34 0 9 -5 3 -11 -12 -13 -36 -32 -30 -36 13 -3 29 -1 32 17 27 12 -3 21 -1 21
4 0 10 -33 12 -43 2z"/>
<path d="M1395 5638 c-40 -31 -57 -80 -56 -164 1 -122 38 -179 118 -179 38 0
49 5 73 32 53 59 65 168 29 254 -34 77 -106 103 -164 57z m107 -58 c24 -33 33
-114 19 -168 -21 -76 -85 -93 -117 -30 -23 45 -16 178 11 207 24 28 62 24 87
-9z"/>
<path d="M1881 5621 c-16 -29 -13 -67 5 -85 32 -32 57 -6 52 56 -2 35 -7 44
-25 46 -14 2 -26 -4 -32 -17z m47 -40 c3 -39 2 -42 -20 -39 -27 4 -37 50 -17
74 20 24 34 10 37 -35z"/>
<path d="M4530 5601 c0 -5 -6 -16 -13 -23 -8 -7 -16 -28 -20 -46 -9 -43 10
-42 46 5 32 43 35 73 7 73 -11 0 -20 -4 -20 -9z"/>
<path d="M1258 5428 c-28 -7 -38 -15 -38 -30 0 -17 5 -19 30 -13 l30 7 0 -86
0 -86 -31 0 c-24 0 -30 -4 -27 -17 3 -15 15 -18 83 -18 64 0 80 3 80 15 0 10
-12 16 -32 18 l-33 3 0 110 c0 119 3 114 -62 97z"/>
<path d="M2158 5383 c-57 -16 -68 -47 -15 -41 l32 3 0 -85 0 -85 -32 -3 c-21
-2 -33 -9 -33 -18 0 -11 18 -14 85 -14 67 0 85 3 85 14 0 9 -12 16 -32 18
l-33 3 -5 111 -5 111 -47 -14z"/>
<path d="M1875 5380 c3 -5 8 -10 11 -10 2 0 4 5 4 10 0 6 -5 10 -11 10 -5 0
-7 -4 -4 -10z"/>
<path d="M4590 5369 c0 -7 -8 -17 -17 -24 -18 -13 -26 -42 -17 -65 4 -11 12
-3 30 25 25 42 31 75 14 75 -5 0 -10 -5 -10 -11z"/>
<path d="M1218 5323 c6 -2 12 -17 12 -33 0 -16 -6 -31 -12 -33 -7 -3 1 -5 17
-5 17 0 24 2 18 5 -7 2 -13 20 -13 39 0 26 -4 34 -17 33 -11 0 -13 -3 -5 -6z"/>
<path d="M1878 5323 c6 -2 18 -2 25 0 6 3 1 5 -13 5 -14 0 -19 -2 -12 -5z"/>
<path d="M2072 5288 c-26 -26 -5 -108 28 -108 19 0 40 33 40 64 0 35 -15 56
-40 56 -9 0 -21 -5 -28 -12z m43 -44 c0 -28 -4 -39 -15 -39 -16 0 -26 45 -16
72 11 28 31 7 31 -33z"/>
<path d="M3710 5230 c0 -5 7 -7 15 -4 8 4 15 8 15 10 0 2 -7 4 -15 4 -8 0 -15
-4 -15 -10z"/>
<path d="M3603 5201 c-22 -16 -47 -45 -56 -64 -23 -47 -21 -125 3 -182 24 -56
25 -96 4 -136 -10 -21 -14 -51 -12 -96 3 -62 1 -67 -23 -82 -65 -40 -129 -87
-129 -94 -1 -31 96 18 135 69 14 19 93 45 100 33 4 -5 10 -9 16 -9 14 0 11 66
-5 79 -8 7 -17 34 -21 61 -6 42 -3 53 20 88 26 40 26 42 11 73 -9 18 -16 37
-16 44 0 6 -8 29 -19 50 -14 30 -16 46 -9 72 5 18 7 37 4 42 -3 4 4 17 15 27
25 23 43 54 31 54 -5 0 -27 -13 -49 -29z"/>
<path d="M1178 5173 c7 -3 16 -2 19 1 4 3 -2 6 -13 5 -11 0 -14 -3 -6 -6z"/>
<path d="M1983 5169 c-41 -12 -43 -29 -3 -29 l30 0 0 -64 c0 -63 -1 -65 -27
-68 -52 -6 -24 -23 37 -23 59 0 85 17 35 23 -25 3 -25 5 -25 88 0 46 -3 84 -7
83 -5 0 -23 -5 -40 -10z"/>
<path d="M1123 5160 c-28 -11 -29 -15 -4 -17 11 -1 25 5 32 13 13 16 5 17 -28
4z"/>
<path d="M1840 5143 c-69 -18 -83 -29 -70 -53 8 -16 15 -17 42 -9 18 5 36 9
41 9 4 0 6 -53 5 -117 l-3 -118 -44 -5 c-48 -5 -63 -23 -34 -38 21 -11 181
-16 206 -6 9 3 17 15 17 25 0 16 -8 19 -45 19 l-45 0 0 155 c0 85 -3 154 -7
154 -5 -1 -33 -8 -63 -16z"/>
<path d="M1150 5140 c-24 -12 -85 -30 -104 -30 -9 0 -15 -4 -11 -10 4 -6 15
-6 31 0 14 6 30 7 36 4 7 -4 8 -2 4 4 -4 7 -1 12 7 12 8 0 29 3 46 6 20 4 31
2 31 -4 0 -6 -6 -9 -14 -6 -8 3 -17 1 -21 -5 -3 -7 0 -8 9 -5 12 5 16 -1 16
-21 0 -15 4 -24 10 -20 6 4 10 23 9 44 -3 38 -17 47 -49 31z"/>
<path d="M1231 5131 c-17 -30 -13 -66 9 -86 24 -22 47 -14 56 21 15 60 -39
114 -65 65z m49 -11 c6 -11 8 -31 4 -45 -9 -35 -38 -29 -42 8 -6 54 17 76 38
37z"/>
<path d="M2070 5140 c-10 -7 -11 -10 -2 -10 7 0 12 -14 12 -35 0 -19 -4 -35
-10 -35 -5 0 -10 -4 -10 -10 0 -5 15 -10 33 -10 24 0 28 3 17 10 -9 5 -16 26
-16 50 -2 48 -4 52 -24 40z"/>
<path d="M1039 5127 c7 -7 18 -7 33 0 20 9 20 10 -10 10 -22 0 -29 -4 -23 -10z"/>
<path d="M2242 5108 c-17 -17 -15 -73 3 -88 31 -25 63 27 46 74 -11 28 -30 33
-49 14z m36 -42 c3 -32 1 -37 -15 -34 -19 3 -29 38 -19 65 10 26 31 8 34 -31z"/>
<path d="M1163 5043 c-15 -5 -17 -165 -3 -198 7 -17 9 -16 10 10 1 28 2 29 10
8 13 -32 17 -29 12 7 -2 16 -8 27 -13 24 -5 -3 -9 4 -9 16 0 12 3 19 8 17 4
-3 7 24 7 59 0 35 -2 64 -5 63 -3 0 -11 -3 -17 -6z"/>
<path d="M1778 5013 c6 -2 12 -17 12 -33 0 -16 -6 -31 -12 -33 -7 -3 3 -5 22
-5 19 0 29 2 23 5 -7 2 -13 20 -13 39 0 29 -3 34 -22 33 -13 0 -17 -3 -10 -6z"/>
<path d="M2155 5000 c-7 -12 2 -30 16 -30 6 0 7 6 3 13 -6 9 -5 9 8 0 8 -7 17
-10 20 -7 3 3 9 0 13 -6 5 -7 0 -11 -11 -10 -31 4 -44 1 -44 -10 0 -13 47 -13
55 0 7 11 46 -5 44 -18 -4 -27 5 -45 34 -62 17 -11 35 -20 40 -20 11 0 9 28
-3 35 -6 4 -7 -1 -3 -11 5 -12 3 -15 -6 -9 -7 4 -11 18 -8 31 4 24 -15 50 -31
40 -5 -3 -9 1 -9 9 0 8 5 11 11 8 6 -4 5 1 -2 9 -8 10 -20 14 -29 11 -12 -5
-14 -3 -8 8 6 11 5 11 -5 2 -9 -8 -20 -6 -45 8 -22 13 -36 16 -40 9z m145
-111 c0 -5 -7 -6 -15 -3 -8 4 -15 13 -15 21 0 13 3 13 15 3 8 -7 15 -16 15
-21z"/>
<path d="M2084 4959 c-15 -17 -14 -18 25 -16 23 1 41 5 41 10 0 5 -9 6 -19 2
-11 -3 -23 0 -27 6 -4 7 -3 9 4 5 6 -3 13 -3 16 2 10 16 -24 9 -40 -9z"/>
<path d="M4770 4962 c-14 -2 -32 -13 -41 -25 -21 -28 -33 -93 -19 -102 5 -3
10 0 10 7 0 7 18 28 41 48 47 41 52 77 9 72z"/>
<path d="M1985 4939 c-4 -6 -4 -13 -1 -16 3 -4 6 -1 6 6 0 8 6 11 16 7 8 -3
12 -2 9 4 -8 13 -22 13 -30 -1z"/>
<path d="M2079 4921 c-18 -11 -25 -24 -25 -45 1 -16 7 -30 14 -32 7 -1 8 0 3
2 -5 3 1 16 12 29 43 46 47 53 34 58 -7 2 -23 -3 -38 -12z m24 -6 c-3 -9 -8
-14 -10 -11 -3 3 -2 9 2 15 9 16 15 13 8 -4z m-13 -29 c0 -2 -7 -7 -16 -10 -8
-3 -12 -2 -9 4 6 10 25 14 25 6z"/>
<path d="M912 4919 c-34 -10 -35 -35 -1 -26 17 5 19 -1 19 -59 0 -57 -2 -64
-20 -64 -11 0 -20 -4 -20 -10 0 -5 25 -10 55 -10 30 0 55 5 55 10 0 6 -9 10
-20 10 -18 0 -20 7 -20 80 0 44 -3 80 -7 79 -5 0 -23 -5 -41 -10z"/>
<path d="M2013 4902 c-11 -15 -13 -15 -22 -2 -7 9 -11 10 -11 3 0 -21 21 -26
38 -9 9 8 14 18 11 20 -3 3 -10 -3 -16 -12z"/>
<path d="M2285 4850 c7 -11 7 -127 1 -188 -1 -12 -13 -37 -27 -55 -13 -17 -23
-35 -21 -39 2 -9 -6 -11 -68 -13 -42 -1 -59 7 -60 29 0 5 7 3 15 -4 25 -20 23
-7 -1 17 -20 18 -25 19 -35 7 -6 -8 -7 -14 -2 -14 14 0 34 -49 26 -63 -4 -7 1
-6 11 2 15 12 17 12 14 0 -2 -8 3 -12 12 -10 23 7 53 5 74 -4 12 -5 17 -5 13
1 -7 12 31 100 39 91 3 -3 -1 -20 -10 -38 -18 -36 -13 -51 9 -28 16 16 28 82
14 73 -5 -3 -9 0 -9 5 0 6 5 11 10 11 6 0 10 35 10 86 0 74 2 85 14 74 8 -6
12 -18 9 -26 -3 -8 0 -14 6 -14 17 0 13 22 -9 50 -24 31 -26 47 -3 29 11 -9
14 -10 9 -2 -4 7 -16 18 -28 24 -16 8 -19 8 -13 -1z"/>
<path d="M2036 4823 c-9 -31 -3 -167 8 -188 6 -11 11 -23 12 -27 1 -5 2 -11 3
-14 3 -12 31 26 31 42 0 17 -1 17 -13 -1 -11 -14 -16 -15 -22 -5 -4 7 -2 16 5
20 15 9 8 46 -8 43 -11 -3 -10 15 4 85 3 16 1 21 -7 17 -8 -6 -8 -2 0 13 7 13
7 23 2 27 -5 3 -12 -3 -15 -12z"/>
<path d="M1695 4800 c0 -16 5 -30 11 -30 6 0 9 13 6 30 -2 17 -7 30 -11 30 -3
0 -6 -13 -6 -30z"/>
<path d="M2070 4820 c-8 -5 -11 -12 -7 -16 4 -4 13 -2 19 4 15 15 7 24 -12 12z"/>
<path d="M842 4806 c7 -8 15 -12 17 -11 5 6 -10 25 -20 25 -5 0 -4 -6 3 -14z"/>
<path d="M1138 4806 c-11 -8 -34 -11 -58 -9 -31 3 -40 1 -40 -11 0 -9 0 -19 0
-23 0 -9 80 -15 99 -8 11 4 10 9 -5 21 -18 15 -18 15 2 11 27 -6 49 7 40 22
-9 14 -17 14 -38 -3z m-73 -25 c3 -5 2 -12 -3 -15 -5 -3 -9 1 -9 9 0 17 3 19
12 6z"/>
<path d="M1207 4793 c-33 -5 -59 -43 -27 -40 11 1 20 7 20 15 0 7 5 10 10 7 6
-4 8 -10 6 -14 -3 -4 14 -9 38 -9 46 -2 69 20 45 42 -9 8 -10 7 -6 -6 4 -10 2
-18 -2 -18 -5 0 -16 -3 -25 -6 -10 -4 -16 -1 -16 10 0 10 6 13 15 10 8 -4 15
-2 15 3 0 9 -30 12 -73 6z"/>
<path d="M2067 4783 c-11 -20 -5 -82 8 -87 11 -4 15 2 15 24 0 17 -5 30 -11
30 -6 0 -8 9 -4 20 6 19 1 28 -8 13z"/>
<path d="M840 4770 c-9 -6 -10 -10 -3 -10 6 0 15 5 18 10 8 12 4 12 -15 0z"/>
<path d="M1945 4745 c-5 -2 -36 -11 -68 -20 -51 -14 -58 -19 -55 -38 3 -20 8
-22 51 -20 26 2 47 0 48 -5 6 -46 8 -176 4 -209 l-6 -42 -47 -3 c-43 -3 -47
-5 -47 -28 l0 -25 124 0 c108 0 125 2 135 18 15 24 -6 37 -61 37 l-43 0 0 170
c0 171 -1 177 -35 165z"/>
<path d="M4773 4729 c-11 -11 -5 -59 8 -59 5 0 9 16 9 35 0 38 -1 40 -17 24z"/>
<path d="M896 4722 c7 -4 14 -16 17 -27 4 -15 5 -14 6 8 1 20 -4 27 -16 27
-12 0 -14 -3 -7 -8z"/>
<path d="M2320 4705 c-1 -11 -3 -28 -5 -38 -2 -9 1 -15 6 -11 5 3 9 0 9 -7 0
-7 3 -9 6 -6 4 4 2 13 -5 21 -7 8 -8 16 -3 18 5 1 6 12 1 23 l-8 20 -1 -20z"/>
<path d="M1110 4689 c-14 -4 -72 -19 -130 -35 -139 -36 -160 -47 -160 -84 0
-34 23 -60 53 -60 12 0 47 7 77 15 30 8 58 15 63 15 4 0 7 -117 7 -260 l0
-260 -83 0 c-90 0 -117 -13 -117 -58 0 -49 14 -52 264 -52 167 0 235 3 244 12
20 20 15 76 -7 88 -11 5 -56 10 -100 10 l-81 0 -2 338 -3 339 -25 -8z"/>
<path d="M898 4663 c6 -2 18 -2 25 0 6 3 1 5 -13 5 -14 0 -19 -2 -12 -5z"/>
<path d="M2388 4663 c6 -2 12 -15 12 -28 0 -13 -6 -26 -12 -28 -7 -3 1 -5 17
-5 17 0 24 2 18 5 -7 2 -13 18 -13 34 0 21 -5 29 -17 28 -11 0 -13 -3 -5 -6z"/>
<path d="M4925 4630 c-3 -5 1 -10 9 -10 8 0 18 5 21 10 3 6 -1 10 -9 10 -8 0
-18 -4 -21 -10z"/>
<path d="M743 4609 c-27 -10 -31 -21 -6 -17 13 2 17 -6 18 -35 2 -31 -2 -40
-19 -47 -16 -7 -10 -9 24 -8 25 0 37 2 28 5 -13 3 -18 17 -20 57 -3 51 -4 53
-25 45z"/>
<path d="M1260 4578 c-19 -13 -48 -48 -65 -78 -26 -49 -30 -67 -33 -157 -3
-78 0 -115 13 -157 59 -186 248 -210 330 -42 23 47 26 67 28 167 1 100 -1 120
-21 165 -13 28 -39 66 -58 85 -30 29 -42 34 -97 37 -53 3 -67 0 -97 -20z m131
-68 c10 -6 28 -29 40 -52 18 -35 20 -55 17 -154 -3 -124 -16 -155 -73 -183
-26 -12 -33 -12 -64 5 -47 25 -70 84 -70 184 -1 91 11 139 45 180 27 32 67 40
105 20z"/>
<path d="M3285 4551 c-45 -19 -60 -49 -57 -115 2 -57 -1 -67 -28 -101 -27 -33
-30 -45 -30 -104 0 -44 7 -81 20 -110 29 -64 27 -76 -30 -181 -20 -37 -26 -96
-11 -119 9 -13 51 -41 126 -82 22 -12 43 -27 47 -33 13 -22 44 -52 81 -81 21
-15 47 -45 57 -65 11 -21 42 -56 70 -80 27 -23 50 -47 50 -52 0 -19 51 -78 93
-109 37 -27 46 -29 130 -29 l89 0 39 -39 c37 -37 39 -42 39 -100 l0 -62 -61
-61 c-72 -73 -80 -88 -108 -195 -25 -96 -26 -140 -6 -167 9 -12 15 -42 15 -72
0 -76 35 -205 61 -226 40 -33 72 -22 156 54 24 21 47 38 52 38 27 0 70 -25
101 -60 49 -55 114 -59 174 -11 24 20 54 32 89 36 69 10 136 59 181 133 34 57
39 71 37 106 -1 16 -3 17 -18 5 -9 -8 -24 -31 -33 -52 -23 -51 -89 -106 -126
-106 -72 1 -134 -26 -134 -57 0 -7 -14 -20 -32 -28 -30 -15 -33 -15 -56 6 -22
21 -44 60 -46 83 -1 6 -15 9 -33 7 -25 -2 -33 1 -38 18 -4 14 -12 19 -22 16
-8 -3 -26 -6 -39 -6 -14 0 -24 -6 -24 -14 0 -20 -108 -116 -124 -110 -18 7
-36 49 -36 85 0 16 -7 43 -15 59 -11 21 -12 36 -5 55 13 34 13 75 -1 75 -17 0
-42 71 -30 83 6 6 11 24 11 39 0 16 4 36 9 46 5 9 14 35 20 57 17 57 33 85 46
85 6 0 27 17 46 38 19 22 41 41 49 44 10 3 14 25 16 79 1 41 5 82 9 92 6 14 2
20 -14 24 -11 3 -21 12 -21 19 0 8 -6 14 -14 14 -8 0 -30 19 -50 42 -34 40
-36 41 -55 24 -15 -14 -24 -15 -40 -6 -15 7 -27 8 -40 0 -41 -22 -71 -12 -126
44 -35 34 -55 63 -57 82 -2 22 -12 33 -43 48 -38 18 -65 52 -65 82 0 13 -30
39 -90 78 -22 14 -34 30 -33 41 2 23 -27 46 -77 61 -19 6 -39 20 -45 32 -7 15
-19 22 -37 22 -27 0 -48 23 -48 54 0 8 15 29 32 47 57 57 69 154 27 208 -14
17 -19 40 -19 82 0 53 3 61 35 93 37 38 45 78 25 131 -7 20 -6 32 6 50 17 26
13 29 -21 16z"/>
<path d="M2026 4531 c-19 -7 -19 -8 2 -13 17 -5 22 -13 22 -42 0 -23 -6 -39
-17 -45 -14 -8 -10 -10 22 -10 35 0 38 1 23 13 -13 9 -18 27 -18 60 0 48 -2
50 -34 37z"/>
<path d="M1571 4486 c-19 -22 -23 -78 -9 -106 16 -30 50 -37 72 -15 18 19 22
86 6 116 -12 22 -52 25 -69 5z m57 -59 c2 -37 -1 -49 -14 -54 -34 -13 -61 66
-32 95 25 25 43 9 46 -41z"/>
<path d="M727 4460 c-83 -22 -101 -35 -86 -62 9 -17 17 -19 60 -13 l49 7 0
-146 0 -146 -50 0 c-52 0 -78 -21 -61 -49 13 -20 278 -21 291 -2 18 30 -7 51
-60 51 l-50 0 0 190 c0 146 -3 190 -12 189 -7 0 -43 -9 -81 -19z"/>
<path d="M2114 4468 c-4 -7 -3 -8 4 -4 8 5 12 -4 12 -28 0 -19 -6 -37 -12 -39
-7 -3 0 -6 17 -6 22 -1 26 2 17 11 -7 7 -12 27 -12 45 0 33 -12 43 -26 21z"/>
<path d="M5094 4415 c-3 -8 -3 -18 0 -23 3 -5 -3 -33 -14 -61 -10 -29 -16 -60
-13 -68 9 -22 31 44 40 114 5 50 -1 70 -13 38z"/>
<path d="M590 4319 c-14 -26 1 -69 25 -69 16 0 29 37 23 67 -5 26 -35 28 -48
2z m35 -24 c0 -32 -19 -45 -29 -19 -9 22 3 56 17 51 7 -2 12 -16 12 -32z"/>
<path d="M1573 4253 c-28 -5 -30 -23 -3 -23 17 0 20 -7 20 -50 0 -43 -3 -50
-20 -50 -11 0 -20 -4 -20 -10 0 -5 23 -10 50 -10 28 0 50 5 50 10 0 6 -9 10
-20 10 -18 0 -20 7 -20 65 0 36 -3 64 -7 64 -5 -1 -18 -4 -30 -6z"/>
<path d="M639 4223 c-16 -42 0 -97 29 -101 33 -5 52 15 52 55 0 48 -16 73 -46
73 -18 0 -27 -8 -35 -27z m65 -18 c6 -25 -8 -75 -22 -75 -17 0 -32 25 -32 55
0 54 42 70 54 20z"/>
<path d="M2225 4230 c-4 -6 -1 -9 7 -8 8 2 14 -10 16 -34 2 -28 -1 -37 -15
-41 -10 -3 -2 -5 17 -5 19 0 29 2 23 5 -8 3 -13 23 -13 49 0 32 -4 44 -14 44
-8 0 -18 -5 -21 -10z"/>
<path d="M2495 4202 c-53 -15 -60 -20 -60 -42 0 -27 6 -28 63 -16 l32 8 0
-136 0 -136 -51 0 c-47 0 -50 -2 -47 -22 3 -22 6 -23 128 -23 118 0 125 1 125
20 0 17 -8 21 -50 25 l-50 5 -1 165 c-1 133 -4 165 -15 167 -8 1 -41 -6 -74
-15z"/>
<path d="M2335 4140 c0 -16 5 -30 11 -30 6 0 9 13 6 30 -2 17 -7 30 -11 30 -3
0 -6 -13 -6 -30z"/>
<path d="M2651 4134 c0 -11 3 -14 6 -6 3 7 2 16 -1 19 -3 4 -6 -2 -5 -13z"/>
<path d="M1965 4130 c-3 -5 -1 -10 4 -10 15 0 14 -43 -1 -58 -9 -9 -5 -12 18
-11 16 0 23 3 17 6 -8 2 -13 22 -13 44 0 37 -12 51 -25 29z"/>
<path d="M1897 4124 c-4 -4 -7 -12 -7 -18 0 -6 5 -4 10 4 9 13 11 13 21 0 9
-12 10 -12 7 -1 -5 17 -21 25 -31 15z"/>
<path d="M2302 4080 c-72 -20 -86 -30 -80 -56 4 -19 13 -21 73 -13 l30 4 3
-132 c2 -124 1 -132 -18 -138 -11 -3 -24 -4 -29 0 -6 3 -22 3 -36 -1 -33 -8
-35 -49 -2 -58 45 -12 222 -7 242 8 31 22 12 44 -45 52 l-50 7 0 173 c0 133
-3 174 -12 173 -7 0 -41 -9 -76 -19z"/>
<path d="M1893 4070 c2 -8 10 -15 17 -15 7 0 15 7 17 15 4 13 3 13 -6 0 -10
-13 -12 -13 -22 0 -9 13 -10 13 -6 0z"/>
<path d="M1375 4009 c-17 -6 -17 -8 -2 -8 13 -1 17 -10 17 -36 0 -19 -4 -35
-10 -35 -5 0 -10 -4 -10 -10 0 -5 14 -10 30 -10 17 0 30 5 30 10 0 6 -4 10
-10 10 -5 0 -10 15 -10 33 0 43 -10 56 -35 46z"/>
<path d="M2710 3954 c-13 -33 -13 -47 2 -79 14 -30 53 -34 68 -6 14 27 13 84
-2 99 -21 21 -58 14 -68 -14z m58 -38 c3 -45 2 -47 -20 -44 -18 2 -24 10 -26
36 -4 35 13 65 32 59 6 -2 12 -25 14 -51z"/>
<path d="M5093 3973 c-7 -2 -13 -10 -13 -17 0 -13 -88 -36 -138 -36 -22 0 -32
-5 -32 -15 0 -15 -37 -35 -66 -35 -8 0 -18 10 -23 23 -5 13 -16 29 -25 36 -14
12 -16 11 -15 -5 0 -11 4 -28 8 -39 5 -12 2 -33 -5 -52 -8 -17 -11 -39 -8 -47
7 -17 -33 -31 -63 -22 -30 9 -58 -15 -61 -53 -3 -46 11 -52 62 -28 31 14 48
30 62 60 16 34 27 44 69 58 149 51 218 78 232 91 11 11 38 92 29 87 0 0 -7 -3
-13 -6z"/>
<path d="M995 3860 c0 -16 5 -30 11 -30 6 0 9 13 6 30 -2 17 -7 30 -11 30 -3
0 -6 -13 -6 -30z"/>
<path d="M1175 3853 c-153 -41 -175 -52 -175 -93 0 -33 30 -70 58 -70 9 0 49
9 87 20 38 11 71 20 72 20 2 0 3 -126 3 -279 l0 -279 -96 -4 c-81 -2 -98 -6
-110 -22 -18 -25 -18 -57 0 -82 13 -18 30 -19 252 -22 249 -3 288 2 300 40 10
32 -5 68 -32 78 -14 6 -61 10 -105 10 l-79 0 0 360 0 360 -22 -1 c-13 -1 -81
-17 -153 -36z"/>
<path d="M1857 3878 c-27 -7 -37 -15 -35 -27 3 -12 12 -15 36 -13 l32 3 0 -85
0 -86 -36 0 c-28 0 -35 -3 -32 -17 3 -15 15 -18 83 -18 64 0 80 3 80 15 0 10
-12 16 -32 18 l-33 3 0 110 c0 119 3 114 -63 97z"/>
<path d="M2227 3883 c-12 -12 -7 -22 8 -17 12 5 15 -3 15 -40 0 -34 -4 -46
-15 -46 -8 0 -15 -4 -15 -10 0 -5 21 -10 46 -10 27 0 43 4 39 10 -3 6 -13 10
-21 10 -10 0 -14 14 -14 55 0 47 -3 55 -18 55 -10 0 -22 -3 -25 -7z"/>
<path d="M1380 3867 l-25 -11 28 -4 c26 -3 27 -6 27 -58 0 -47 -3 -54 -19 -54
-11 0 -23 -4 -26 -10 -4 -6 15 -10 49 -10 31 0 56 5 56 10 0 6 -9 10 -20 10
-18 0 -20 7 -20 70 0 75 -3 78 -50 57z"/>
<path d="M798 3853 c6 -2 18 -2 25 0 6 3 1 5 -13 5 -14 0 -19 -2 -12 -5z"/>
<path d="M1974 3852 c-51 -33 -40 -145 14 -159 35 -9 62 26 62 81 0 64 -38
104 -76 78z m40 -28 c20 -20 21 -74 1 -100 -15 -19 -15 -19 -35 5 -21 24 -20
72 2 98 13 16 13 16 32 -3z"/>
<path d="M2808 3843 c-24 -6 -23 -23 1 -23 21 0 29 -29 22 -87 -2 -24 -8 -33
-22 -33 -11 0 -19 -7 -19 -15 0 -13 11 -15 55 -13 54 3 76 20 35 26 -18 3 -20
11 -20 78 0 78 -2 80 -52 67z"/>
<path d="M845 3835 c-5 -2 -43 -13 -83 -25 -69 -20 -73 -22 -70 -48 3 -24 7
-27 38 -26 19 0 46 2 60 5 l25 4 3 -162 2 -162 -62 -3 c-58 -3 -63 -5 -66 -27
-2 -13 2 -28 10 -32 15 -10 278 -12 302 -3 21 8 21 50 0 58 -9 3 -38 6 -65 6
l-49 0 0 210 c0 223 1 220 -45 205z"/>
<path d="M2683 3803 c10 -3 17 -14 17 -28 0 -13 -8 -29 -17 -34 -15 -8 -11
-10 17 -10 19 0 29 3 23 6 -7 2 -13 20 -13 39 0 29 -3 34 -22 33 -17 -1 -19
-2 -5 -6z"/>
<path d="M2539 3697 c-99 -66 -120 -309 -35 -420 56 -73 145 -84 212 -25 50
44 69 105 69 223 -1 89 -4 106 -28 153 -16 30 -41 61 -60 72 -45 28 -114 26
-158 -3z m131 -67 c32 -32 40 -64 40 -161 0 -135 -29 -184 -103 -177 -23 2
-38 12 -54 37 -20 30 -23 46 -23 140 0 109 8 136 48 169 24 18 70 14 92 -8z"/>
<path d="M1505 3695 c-5 -2 -29 -9 -52 -15 -32 -8 -43 -16 -43 -30 0 -27 15
-32 55 -21 l35 9 0 -118 0 -119 -42 -3 c-35 -2 -43 -7 -43 -23 0 -19 8 -20
104 -23 105 -3 135 5 124 34 -3 9 -20 14 -49 14 l-44 0 0 150 c0 136 -2 150
-17 149 -10 0 -22 -2 -28 -4z"/>
<path d="M2920 3681 c-25 -47 -5 -111 35 -111 27 0 45 25 45 65 0 40 -18 65
-45 65 -14 0 -29 -8 -35 -19z m60 -51 c0 -40 -19 -57 -39 -37 -15 15 -14 70 1
85 19 19 38 -5 38 -48z"/>
<path d="M692 3683 c-20 -8 -42 -59 -42 -100 0 -47 18 -84 49 -99 52 -26 91
18 91 104 0 76 -43 118 -98 95z m58 -42 c25 -47 5 -141 -30 -141 -18 0 -40 46
-40 83 0 48 15 77 40 77 11 0 24 -9 30 -19z"/>
<path d="M1592 3661 c-11 -7 -11 -9 1 -14 19 -7 20 -67 1 -67 -27 0 -14 -15
16 -17 17 -1 30 2 30 7 0 6 -4 10 -10 10 -5 0 -10 20 -10 45 0 46 -4 51 -28
36z"/>
<path d="M1150 3620 c-10 -6 -11 -10 -2 -10 7 0 12 -13 12 -29 0 -16 -6 -32
-12 -34 -7 -3 1 -6 17 -6 17 0 25 3 18 7 -6 4 -13 24 -15 44 -2 31 -6 36 -18
28z"/>
<path d="M4645 3611 c-30 -13 -57 -47 -53 -68 2 -12 -4 -19 -20 -21 -16 -3
-25 -12 -29 -34 -5 -25 -16 -35 -59 -55 -74 -34 -83 -47 -50 -78 l27 -25 60
63 c34 34 68 75 76 92 9 16 29 42 44 56 18 16 29 37 29 53 0 14 -1 26 -2 25
-2 0 -12 -4 -23 -8z"/>
<path d="M343 3600 c-13 -5 -23 -14 -23 -20 0 -6 10 -10 23 -8 21 3 22 -1 22
-57 0 -55 -2 -60 -22 -63 -47 -7 -21 -22 37 -22 58 0 84 15 38 22 -21 3 -23 9
-26 81 -3 80 -6 84 -49 67z"/>
<path d="M2825 3599 c-4 -6 -5 -12 -2 -15 2 -3 7 2 10 11 7 17 1 20 -8 4z"/>
<path d="M2876 3597 c3 -10 9 -15 12 -12 3 3 0 11 -7 18 -10 9 -11 8 -5 -6z"/>
<path d="M1381 3574 c-31 -39 -29 -107 4 -139 13 -14 29 -25 35 -25 6 0 22 11
35 25 47 46 21 165 -35 165 -10 0 -28 -12 -39 -26z m70 -31 c7 -18 8 -41 2
-63 -6 -28 -13 -35 -33 -35 -23 0 -25 4 -28 49 -4 60 2 76 28 76 13 0 24 -10
31 -27z"/>
<path d="M1585 3530 c-3 -5 -1 -10 4 -10 15 0 14 -57 -1 -63 -7 -3 3 -6 22 -6
28 0 32 2 18 10 -12 6 -18 22 -18 44 0 34 -12 46 -25 25z"/>
<path d="M584 3505 c1 -23 30 -28 32 -5 0 9 -1 10 -3 3 -6 -19 -21 -16 -26 5
-3 13 -4 12 -3 -3z"/>
<path d="M2876 3513 c-6 -14 -5 -15 5 -6 7 7 10 15 7 18 -3 3 -9 -2 -12 -12z"/>
<path d="M960 3506 c0 -2 7 -7 16 -10 8 -3 12 -2 9 4 -6 10 -25 14 -25 6z"/>
<path d="M2092 3459 c-52 -20 -66 -140 -21 -188 60 -64 137 25 109 128 -14 54
-45 76 -88 60z m62 -79 c8 -50 -11 -95 -39 -95 -27 0 -47 42 -41 90 9 77 68
80 80 5z"/>
<path d="M2318 3463 c-24 -6 -23 -23 2 -23 17 0 20 -7 20 -41 0 -32 -4 -42
-20 -46 -11 -3 -20 -9 -20 -14 0 -12 77 -11 85 1 3 6 -3 10 -14 10 -19 0 -21
6 -21 60 0 33 -3 59 -7 59 -5 -1 -16 -3 -25 -6z"/>
<path d="M2380 3439 c-13 -23 0 -69 19 -69 17 0 32 29 29 57 -4 35 -32 42 -48
12z m40 -18 c0 -35 -13 -47 -30 -26 -14 17 -4 55 16 55 9 0 14 -11 14 -29z"/>
<path d="M284 3415 c-8 -20 2 -45 18 -44 10 0 10 2 1 6 -7 2 -13 13 -13 23 0
10 6 21 13 23 9 4 9 6 -1 6 -7 1 -15 -6 -18 -14z"/>
<path d="M1960 3386 c-30 -8 -46 -18 -48 -30 -3 -16 1 -18 32 -14 l36 4 0 -93
0 -93 -36 0 c-28 0 -35 -3 -32 -17 3 -16 15 -18 88 -18 73 0 85 2 88 18 3 14
-4 17 -32 17 l-36 0 0 120 c0 66 -3 120 -7 119 -5 -1 -28 -6 -53 -13z"/>
<path d="M1400 3320 c-11 -11 -20 -32 -20 -48 0 -32 25 -72 45 -72 23 0 45 30
45 61 0 62 -37 92 -70 59z m45 -50 c0 -38 -3 -45 -20 -45 -15 0 -21 8 -23 33
-4 45 4 64 25 60 14 -3 18 -13 18 -48z"/>
<path d="M315 3302 c-53 -15 -60 -20 -60 -42 0 -21 4 -25 30 -24 17 0 39 2 50
5 19 4 20 -2 23 -133 l3 -137 -53 -3 c-49 -3 -53 -5 -53 -28 l0 -25 126 -3
c103 -2 128 0 139 13 20 25 -5 45 -56 45 l-44 0 0 175 0 175 -22 -1 c-13 0
-50 -8 -83 -17z"/>
<path d="M2246 3290 c-52 -26 -73 -46 -103 -98 -44 -75 -54 -126 -53 -275 1
-157 12 -202 68 -283 46 -66 88 -94 152 -101 139 -15 239 74 276 246 22 106
15 268 -15 336 -5 11 -13 31 -19 45 -20 51 -71 108 -114 129 -57 27 -138 27
-192 1z m176 -116 c15 -15 37 -53 49 -83 18 -49 20 -72 17 -191 -4 -146 -17
-188 -72 -239 -22 -20 -32 -23 -80 -19 -65 5 -86 21 -118 87 -21 42 -23 60
-23 202 0 135 2 160 18 176 9 11 17 24 17 30 0 14 40 50 70 62 38 16 90 5 122
-25z"/>
<path d="M3253 3259 c-44 -13 -46 -44 -3 -35 l30 6 0 -85 0 -85 -31 0 c-20 0
-29 -4 -27 -12 3 -9 31 -14 81 -16 64 -2 77 0 77 13 0 10 -10 15 -30 15 l-30
0 0 105 c0 116 2 114 -67 94z"/>
<path d="M249 3201 c-20 -16 -24 -29 -24 -74 0 -85 48 -124 95 -77 28 28 28
117 0 148 -25 27 -41 28 -71 3z m61 -30 c13 -25 13 -67 0 -92 -13 -23 -46 -25
-54 -3 -8 20 -8 78 0 98 8 22 41 20 54 -3z"/>
<path d="M3354 3176 c-8 -34 12 -62 33 -44 19 15 13 62 -9 66 -12 2 -19 -5
-24 -22z m36 -10 c0 -14 -5 -28 -10 -31 -13 -8 -24 20 -16 40 9 24 26 17 26
-9z"/>
<path d="M2715 3170 c-11 -12 -19 -41 -22 -82 -5 -80 19 -128 66 -128 52 0 74
29 78 101 5 84 -19 129 -70 129 -21 0 -41 -8 -52 -20z m79 -15 c41 -41 25
-167 -22 -173 -40 -6 -52 14 -52 85 0 35 5 73 10 84 13 23 43 25 64 4z"/>
<path d="M2605 3171 c-3 -7 0 -8 9 -5 12 5 16 0 16 -19 0 -35 -18 -44 -29 -15
-7 15 -10 17 -10 7 -1 -9 6 -22 14 -29 21 -18 37 0 33 36 -3 29 -21 43 -33 25z"/>
<path d="M1800 3144 c-13 -33 -13 -47 2 -79 12 -27 45 -34 66 -13 7 7 12 30
12 53 0 46 -13 65 -47 65 -16 0 -27 -8 -33 -26z m60 -41 c0 -40 -2 -44 -22
-41 -18 2 -24 11 -26 36 -4 37 12 64 34 55 9 -3 14 -20 14 -50z"/>
<path d="M1719 3123 c-13 -35 3 -73 30 -73 30 0 44 63 19 88 -20 20 -38 14
-49 -15z m46 -23 c0 -40 -29 -55 -38 -20 -8 31 3 61 22 58 11 -2 16 -14 16
-38z"/>
<path d="M4531 3127 c-8 -10 -7 -19 4 -33 14 -18 14 -17 15 14 0 36 -2 38 -19
19z"/>
<path d="M2638 3082 c-10 -2 -18 -7 -18 -12 0 -5 7 -7 15 -4 23 9 21 -62 -2
-75 -15 -8 -10 -10 21 -11 34 0 37 2 23 13 -9 7 -17 30 -19 52 -2 32 -7 40
-20 37z"/>
<path d="M2883 3054 c20 -6 24 -50 5 -57 -8 -2 -7 -3 2 -3 10 1 15 12 15 31 0
22 -5 30 -20 32 -16 1 -16 1 -2 -3z"/>
<path d="M673 3043 c-13 -2 -23 -8 -23 -13 0 -4 9 -6 20 -3 19 5 20 0 20 -61
0 -51 -3 -66 -14 -66 -8 0 -18 -4 -21 -10 -4 -6 14 -10 47 -9 42 0 48 2 31 9
-20 8 -23 17 -24 67 -1 32 -1 66 0 76 1 9 -1 16 -6 16 -4 -1 -18 -4 -30 -6z"/>
<path d="M2861 3024 c0 -11 3 -14 6 -6 3 7 2 16 -1 19 -3 4 -6 -2 -5 -13z"/>
<path d="M3157 3023 c-13 -12 -7 -61 9 -74 14 -11 18 -10 30 6 15 21 17 35 8
59 -6 16 -35 22 -47 9z m38 -23 c7 -22 -11 -53 -26 -44 -5 3 -9 18 -9 35 0 34
25 40 35 9z"/>
<path d="M518 3013 c-24 -6 -23 -23 2 -23 18 0 20 -7 20 -60 0 -53 -2 -60 -20
-60 -11 0 -20 -4 -20 -10 0 -5 25 -10 55 -10 54 0 77 15 33 22 -21 3 -23 8
-23 76 0 75 -1 77 -47 65z"/>
<path d="M1660 3007 c-96 -27 -163 -88 -211 -192 -44 -93 -58 -168 -64 -324
-5 -162 6 -231 57 -338 71 -152 160 -217 298 -217 108 0 189 39 251 121 91
121 113 214 106 447 -3 142 -8 181 -26 230 -43 121 -123 225 -198 258 -55 24
-155 31 -213 15z m155 -163 c36 -17 73 -65 102 -129 14 -32 18 -76 21 -217 4
-160 2 -183 -17 -241 -39 -117 -114 -177 -204 -163 -66 10 -119 67 -154 161
-25 70 -25 364 1 442 45 135 149 196 251 147z"/>
<path d="M3382 3008 c-19 -19 -15 -76 7 -87 14 -8 22 -6 35 8 38 42 -3 118
-42 79z m38 -44 c0 -28 -4 -35 -17 -32 -22 4 -29 44 -13 63 18 22 30 9 30 -31z"/>
<path d="M584 2996 c-9 -23 0 -51 17 -54 19 -4 32 23 24 49 -7 22 -33 25 -41
5z m31 -21 c0 -10 -6 -20 -12 -22 -8 -3 -13 5 -13 22 0 17 5 25 13 23 6 -3 12
-13 12 -23z"/>
<path d="M1314 3002 c-22 -14 -34 -52 -34 -105 0 -70 26 -107 75 -107 47 0 70
36 70 110 0 73 -23 110 -68 110 -17 0 -37 -4 -43 -8z m76 -58 c20 -59 -2 -124
-41 -124 -25 0 -39 30 -39 87 0 54 12 73 46 73 17 0 25 -9 34 -36z"/>
<path d="M1460 2989 c-16 -28 2 -72 28 -67 24 5 25 81 0 86 -9 2 -22 -6 -28
-19z m38 -30 c-5 -35 -28 -36 -28 -1 0 16 3 32 7 36 11 11 25 -10 21 -35z"/>
<path d="M1055 2990 c-3 -5 3 -10 15 -10 19 0 21 -5 18 -52 -2 -32 -8 -53 -15
-53 -6 0 -15 -3 -19 -7 -4 -5 14 -8 40 -8 29 0 45 4 41 10 -3 6 -13 10 -21 10
-11 0 -14 14 -14 60 0 53 -2 60 -19 60 -11 0 -23 -4 -26 -10z"/>
<path d="M3011 2953 c-6 -21 -11 -118 -11 -215 0 -159 -7 -207 -23 -165 -3 7
-6 5 -6 -5 -1 -10 -5 -18 -10 -18 -12 0 -22 44 -11 48 6 2 10 44 10 92 0 72
-3 91 -16 98 -11 6 -13 11 -5 16 14 9 15 36 0 36 -5 0 -8 -4 -4 -9 3 -5 1 -12
-5 -16 -6 -3 -13 1 -16 9 -3 9 -13 16 -21 16 -8 0 -11 4 -8 10 3 6 -1 7 -10 3
-13 -5 -14 -8 -3 -15 9 -6 6 -8 -12 -6 -17 2 -26 -2 -28 -14 -2 -10 2 -18 8
-18 6 0 8 5 4 11 -5 8 1 10 19 7 15 -3 24 -1 21 3 -3 5 -1 9 5 9 5 0 12 -4 15
-9 5 -8 17 -182 18 -258 0 -13 6 -22 17 -21 9 0 26 -3 38 -7 15 -5 27 -1 41
13 19 19 21 19 25 4 3 -9 5 84 5 207 0 124 -3 219 -7 212 -5 -7 -7 -26 -5 -42
2 -17 -1 -29 -7 -29 -8 0 -10 16 -7 45 7 55 2 57 -11 8z m26 -85 c-3 -8 -6 -5
-6 6 -1 11 2 17 5 13 3 -3 4 -12 1 -19z m0 -65 c-3 -10 -5 -2 -5 17 0 19 2 27
5 18 2 -10 2 -26 0 -35z m0 -100 c-2 -16 -4 -3 -4 27 0 30 2 43 4 28 2 -16 2
-40 0 -55z m-90 20 c-3 -10 -5 -4 -5 12 0 17 2 24 5 18 2 -7 2 -21 0 -30z m90
-90 c-3 -10 -5 -4 -5 12 0 17 2 24 5 18 2 -7 2 -21 0 -30z m0 -45 c-3 -8 -6
-5 -6 6 -1 11 2 17 5 13 3 -3 4 -12 1 -19z"/>
<path d="M745 2940 c0 -16 5 -30 11 -30 6 0 9 13 6 30 -2 17 -7 30 -11 30 -3
0 -6 -13 -6 -30z"/>
<path d="M2950 2960 c-8 -5 -18 -6 -24 -3 -5 4 -6 1 -1 -7 6 -10 4 -12 -8 -7
-10 3 -17 2 -17 -2 0 -9 24 -21 42 -21 6 0 8 7 4 15 -4 12 -2 13 12 6 20 -11
52 2 33 13 -6 4 -11 1 -12 -6 0 -7 -3 -6 -7 4 -5 12 -11 15 -22 8z"/>
<path d="M2801 2923 c-1 -6 -11 -9 -23 -6 -22 4 -23 4 -4 -11 21 -17 42 -7 33
16 -3 8 -6 8 -6 1z"/>
<path d="M2707 2899 c-9 -6 -15 -15 -11 -20 3 -6 -2 -9 -11 -7 -10 2 -20 -4
-22 -12 -3 -9 -1 -11 4 -5 4 6 18 10 31 9 12 -1 25 3 28 7 3 5 -3 9 -13 10
-16 0 -16 1 2 8 11 5 26 6 34 3 9 -3 12 -1 7 6 -9 15 -25 15 -49 1z"/>
<path d="M2816 2895 c-3 -8 -3 -15 0 -15 3 0 12 7 20 15 13 13 13 15 1 15 -8
0 -17 -7 -21 -15z"/>
<path d="M421 2880 c-14 -3 -27 -12 -29 -19 -3 -10 1 -12 17 -8 21 5 22 3 19
-46 -2 -31 -8 -52 -15 -52 -14 0 -30 -15 -17 -16 59 -6 85 -5 90 3 3 5 -3 12
-15 15 -17 4 -21 14 -23 67 -3 60 -4 62 -27 56z"/>
<path d="M3393 2878 c-39 -10 -44 -28 -8 -28 24 0 25 -3 25 -60 0 -58 -1 -60
-26 -60 -16 0 -24 -5 -21 -12 2 -8 23 -13 57 -13 34 0 55 5 58 13 2 7 -6 12
-22 12 -25 0 -25 2 -28 78 l-3 78 -32 -8z"/>
<path d="M3482 2870 c-16 -26 -15 -100 2 -122 20 -27 62 -23 82 7 18 28 15 95
-6 120 -18 22 -63 19 -78 -5z m68 -25 c12 -31 2 -85 -17 -92 -23 -9 -43 17
-43 56 0 59 42 84 60 36z"/>
<path d="M2835 2871 c-3 -5 -1 -12 5 -16 5 -3 10 1 10 9 0 18 -6 21 -15 7z"/>
<path d="M2697 2833 c-4 -3 -7 -11 -7 -17 0 -6 5 -5 12 2 6 6 9 14 7 17 -3 3
-9 2 -12 -2z"/>
<path d="M2733 2830 c-23 -9 -33 -50 -13 -50 6 0 10 4 10 10 0 6 9 6 26 0 33
-13 54 -13 34 0 -10 6 -11 10 -2 10 6 0 12 7 12 15 0 19 -9 19 -32 -2 -10 -9
-21 -13 -26 -9 -4 4 2 14 12 22 22 16 13 17 -21 4z"/>
<path d="M2660 2821 c0 -13 39 -58 40 -45 0 6 -7 17 -15 24 -8 7 -12 16 -9 21
3 5 0 9 -5 9 -6 0 -11 -4 -11 -9z"/>
<path d="M4632 2798 c-16 -16 -15 -53 2 -67 11 -9 15 -6 20 16 4 16 9 36 12
46 6 20 -16 23 -34 5z"/>
<path d="M521 2784 c0 -11 3 -14 6 -6 3 7 2 16 -1 19 -3 4 -6 -2 -5 -13z"/>
<path d="M211 2776 c-46 -16 -52 -36 -12 -36 l31 0 0 -75 0 -75 -31 0 c-20 0
-29 -4 -26 -12 2 -9 27 -13 75 -13 73 0 101 16 46 25 l-29 5 -3 98 c-1 53 -6
97 -10 96 -4 0 -22 -6 -41 -13z"/>
<path d="M886 2734 c-7 -18 -8 -100 -2 -93 6 6 18 109 12 109 -2 0 -7 -7 -10
-16z"/>
<path d="M848 2733 c7 -3 16 -2 19 1 4 3 -2 6 -13 5 -11 0 -14 -3 -6 -6z"/>
<path d="M766 2706 c-50 -14 -64 -42 -17 -33 l31 7 0 -80 0 -80 -31 0 c-20 0
-29 -4 -26 -12 5 -16 137 -18 137 -3 0 6 -11 11 -24 13 -25 3 -25 5 -28 101
l-3 98 -39 -11z"/>
<path d="M718 2633 c6 -2 12 -17 12 -33 0 -16 -6 -31 -12 -33 -7 -3 1 -5 17
-5 17 0 24 2 18 5 -7 2 -13 20 -13 39 0 26 -4 34 -17 33 -11 0 -13 -3 -5 -6z"/>
<path d="M2128 2590 c2 -16 6 -30 8 -30 2 0 4 14 4 30 0 17 -4 30 -8 30 -5 0
-7 -13 -4 -30z"/>
<path d="M848 2593 c6 -2 18 -2 25 0 6 3 1 5 -13 5 -14 0 -19 -2 -12 -5z"/>
<path d="M903 2593 c9 -2 23 -2 30 0 6 3 -1 5 -18 5 -16 0 -22 -2 -12 -5z"/>
<path d="M502 2570 c0 -14 2 -19 5 -12 2 6 2 18 0 25 -3 6 -5 1 -5 -13z"/>
<path d="M593 2555 c0 -22 2 -30 4 -17 2 12 2 30 0 40 -3 9 -5 -1 -4 -23z"/>
<path d="M3420 2586 c0 -2 7 -7 16 -10 8 -3 12 -2 9 4 -6 10 -25 14 -25 6z"/>
<path d="M3440 2542 c0 -6 -8 -13 -17 -15 -16 -4 -16 -5 -1 -6 18 -1 34 16 24
26 -3 4 -6 1 -6 -5z"/>
<path d="M2542 2510 c0 -19 2 -27 5 -17 2 9 2 25 0 35 -3 9 -5 1 -5 -18z"/>
<path d="M901 2506 c-20 -24 -10 -70 16 -74 27 -4 41 35 23 67 -13 25 -23 26
-39 7z m37 -40 c-2 -12 -10 -21 -18 -21 -16 0 -25 28 -16 52 9 23 38 -4 34
-31z"/>
<path d="M2181 2484 c-16 -21 -21 -41 -21 -89 0 -48 5 -68 21 -89 24 -30 57
-34 81 -8 9 9 24 23 32 30 11 9 16 30 16 71 0 74 -25 111 -75 111 -24 0 -39
-7 -54 -26z m87 -29 c15 -32 15 -100 2 -126 -16 -29 -58 -25 -70 7 -14 35 -12
100 2 124 18 28 52 25 66 -5z"/>
<path d="M2384 2502 c-32 -21 -45 -103 -24 -143 15 -27 33 -24 24 4 -10 30 -5
98 8 114 14 17 23 16 42 -3 19 -19 22 -104 4 -122 -9 -9 -8 -12 5 -12 39 0 47
111 11 151 -17 19 -50 25 -70 11z"/>
<path d="M2970 2500 c0 -5 5 -10 10 -10 6 0 10 5 10 10 0 6 -4 10 -10 10 -5 0
-10 -4 -10 -10z"/>
<path d="M3025 2500 c-4 -6 -10 -8 -14 -6 -4 3 -8 -1 -8 -9 0 -8 4 -12 9 -9 4
3 8 -37 8 -88 0 -51 4 -98 8 -105 4 -6 7 42 7 108 0 65 -1 119 -2 119 -1 0 -5
-5 -8 -10z"/>
<path d="M2936 2464 c-9 -23 -7 -182 2 -187 4 -3 7 42 7 99 0 57 -1 104 -1
104 -1 0 -5 -7 -8 -16z"/>
<path d="M538 2463 c7 -3 16 -2 19 1 4 3 -2 6 -13 5 -11 0 -14 -3 -6 -6z"/>
<path d="M3004 2365 c0 -55 1 -76 3 -47 2 29 2 74 0 100 -2 26 -3 2 -3 -53z"/>
<path d="M3596 2438 c-17 -24 -20 -56 -8 -85 5 -13 8 -6 12 26 9 82 60 81 60
-2 0 -23 4 -36 10 -32 6 3 10 23 10 44 0 63 -53 94 -84 49z"/>
<path d="M2528 2413 c12 -2 30 -2 40 0 9 3 -1 5 -23 4 -22 0 -30 -2 -17 -4z"/>
<path d="M3080 2400 c0 -5 5 -10 11 -10 5 0 7 5 4 10 -3 6 -8 10 -11 10 -2 0
-4 -4 -4 -10z"/>
<path d="M3221 2371 c-37 -37 -40 -134 -4 -173 23 -26 78 -24 97 4 24 34 21
129 -5 162 -24 31 -61 34 -88 7z m67 -23 c18 -18 15 -113 -3 -132 -31 -30 -65
6 -65 68 0 62 36 96 68 64z"/>
<path d="M506 2358 c-9 -12 -16 -43 -16 -68 0 -54 22 -90 54 -90 36 0 56 30
56 86 0 58 -21 94 -55 94 -13 0 -31 -10 -39 -22z m59 -14 c11 -12 15 -30 13
-62 -6 -89 -68 -77 -68 13 0 59 24 80 55 49z"/>
<path d="M928 2373 c6 -2 12 -15 12 -28 0 -13 -6 -26 -12 -28 -7 -3 -4 -6 7
-6 18 -1 20 4 17 34 -3 25 -9 35 -21 34 -10 0 -11 -2 -3 -6z"/>
<path d="M3396 2372 c-2 -4 4 -8 14 -8 10 0 16 4 14 8 -3 4 -9 8 -14 8 -5 0
-11 -4 -14 -8z"/>
<path d="M3085 2360 c-3 -5 -1 -10 4 -10 6 0 11 5 11 10 0 6 -2 10 -4 10 -3 0
-8 -4 -11 -10z"/>
<path d="M423 2323 c-7 -2 -13 -9 -13 -15 0 -6 7 -8 15 -4 12 4 15 -4 15 -44
0 -38 -4 -50 -17 -53 -10 -3 5 -5 32 -4 28 0 40 2 28 4 -21 4 -23 10 -23 64 0
59 -5 66 -37 52z"/>
<path d="M6190 2305 c-81 -17 -127 -33 -215 -78 -232 -117 -379 -320 -472
-652 -25 -91 -28 -115 -28 -265 0 -147 3 -172 24 -230 77 -218 262 -368 509
-416 175 -33 375 -12 518 56 176 85 364 285 364 390 0 62 -105 142 -162 124
-13 -4 -76 -58 -141 -121 -145 -141 -194 -168 -309 -168 -89 0 -118 16 -157
84 -68 122 -11 460 124 737 102 210 222 299 338 250 46 -20 68 -47 137 -175
34 -63 70 -128 81 -143 32 -44 74 -61 138 -56 46 4 59 10 81 36 29 35 191 480
190 524 0 16 -12 41 -29 60 -25 29 -35 32 -94 36 -78 5 -138 -19 -231 -91
l-59 -47 -47 35 c-67 49 -165 93 -246 110 -84 18 -226 18 -314 0z"/>
<path d="M873 2276 c-25 -22 -28 -31 -28 -88 0 -83 21 -118 70 -118 54 0 78
38 73 119 -4 54 -8 67 -32 87 -34 30 -48 30 -83 0z m77 -37 c13 -23 13 -95 0
-120 -6 -10 -21 -19 -34 -19 -31 0 -50 46 -43 102 9 63 52 84 77 37z"/>
<path d="M2310 2287 c-48 -17 -60 -54 -37 -113 9 -24 24 -63 34 -87 l16 -42
-157 -555 c-86 -305 -165 -571 -175 -590 -10 -19 -44 -55 -75 -79 -32 -24 -62
-55 -67 -69 -13 -34 3 -69 37 -82 34 -13 369 -13 416 0 66 19 75 68 26 137
-27 37 -33 54 -32 92 1 25 36 165 79 311 43 146 90 308 105 360 23 80 28 92
37 75 6 -11 95 -198 198 -415 195 -412 235 -484 291 -527 101 -76 260 -69 337
16 65 72 56 45 252 747 85 306 162 571 171 591 10 19 42 53 73 76 70 51 72 53
69 102 -3 37 -6 41 -43 53 -29 10 -90 13 -222 10 -166 -3 -184 -5 -210 -24
-41 -31 -41 -67 -2 -122 26 -36 33 -55 32 -91 0 -35 -134 -531 -169 -631 -4
-9 -90 153 -201 375 -107 214 -207 404 -221 423 -48 63 -63 67 -307 69 -155 2
-230 -1 -255 -10z"/>
<path d="M4196 2289 c-50 -12 -63 -23 -71 -60 -5 -23 -1 -40 20 -71 15 -22 29
-54 32 -71 3 -23 -45 -206 -161 -612 l-166 -580 -44 -40 c-24 -22 -58 -52 -76
-67 -25 -22 -31 -33 -28 -60 2 -26 10 -37 38 -50 31 -16 72 -18 391 -18 196 0
370 3 387 6 41 8 72 39 72 71 0 18 -14 39 -44 67 -49 46 -66 74 -66 108 0 21
28 127 91 341 l20 67 37 0 c70 0 80 -8 130 -98 53 -95 85 -122 148 -122 47 0
86 25 109 71 24 45 135 438 135 475 0 49 -36 85 -91 91 -59 7 -98 -11 -187
-86 -80 -69 -124 -91 -177 -91 -32 0 -35 2 -30 23 4 12 34 121 69 242 l62 220
152 0 c175 0 161 7 192 -100 35 -121 53 -158 89 -182 63 -43 187 -26 224 30
24 38 97 302 97 354 0 60 -22 98 -73 125 l-42 23 -600 2 c-346 1 -617 -3 -639
-8z"/>
<path d="M1334 2277 c-3 -9 -4 -28 -2 -44 2 -20 8 -28 23 -28 17 0 20 7 20 40
0 30 -4 41 -18 43 -9 2 -20 -3 -23 -11z m36 -38 c0 -19 -5 -29 -15 -29 -15 0
-22 50 -9 63 12 12 24 -4 24 -34z"/>
<path d="M3028 2233 c5 -21 7 -23 10 -9 2 10 0 22 -6 28 -6 6 -7 0 -4 -19z"/>
<path d="M2192 2180 c-2 -23 2 -40 8 -40 5 0 10 18 10 40 0 22 -4 40 -8 40 -4
0 -9 -18 -10 -40z"/>
<path d="M310 2183 c-58 -15 -72 -27 -63 -51 5 -10 16 -12 49 -7 l44 6 0 -120
0 -121 -31 0 c-40 0 -70 -16 -63 -35 5 -12 28 -15 119 -15 75 0 116 4 121 12
10 16 -25 38 -63 38 l-33 0 0 155 c0 118 -3 155 -12 154 -7 0 -38 -8 -68 -16z"/>
<path d="M554 2182 c-39 -26 -44 -99 -10 -139 21 -24 26 -26 49 -16 43 20 49
109 11 147 -17 17 -33 20 -50 8z m45 -26 c18 -22 10 -97 -12 -110 -36 -22 -63
56 -37 105 13 23 33 25 49 5z"/>
<path d="M1188 2158 c-22 -10 -38 -21 -35 -24 3 -3 -6 -17 -21 -31 -15 -13
-21 -22 -14 -18 6 3 12 3 12 -2 -1 -13 -27 -43 -32 -37 -3 2 -8 -7 -10 -21 -3
-14 -2 -28 2 -30 4 -2 5 -16 2 -30 -2 -14 0 -25 6 -25 13 0 20 68 8 80 -7 7
-6 10 1 10 7 0 15 -4 18 -10 9 -15 25 -12 25 4 0 8 6 17 13 19 6 3 2 6 -10 6
-28 1 -29 12 -3 36 11 10 20 15 20 10 0 -4 -8 -14 -17 -22 -17 -13 -17 -13 2
-11 20 3 52 27 48 37 -1 3 9 12 23 19 13 7 24 18 24 25 0 7 5 4 11 -5 5 -10
15 -18 20 -18 6 0 3 7 -5 16 -9 8 -16 20 -16 25 0 9 56 7 66 -4 3 -3 -7 -4
-22 -2 -26 2 -27 2 -9 -11 15 -11 21 -11 34 -1 12 10 14 9 8 -5 -3 -10 -2 -18
2 -18 19 0 17 26 -2 43 -26 22 -93 20 -149 -5z m62 8 c0 -3 -4 -8 -10 -11 -5
-3 -10 -1 -10 4 0 6 5 11 10 11 6 0 10 -2 10 -4z m-25 -36 c-3 -5 -12 -10 -18
-10 -7 0 -6 4 3 10 19 12 23 12 15 0z"/>
<path d="M3330 2165 c0 -7 6 -18 14 -22 7 -4 19 -25 25 -45 17 -51 31 -57 31
-13 0 21 -9 49 -21 66 -22 31 -49 39 -49 14z"/>
<path d="M4065 2170 c-9 -14 38 -107 50 -100 14 8 6 40 -20 78 -15 21 -25 29
-30 22z"/>
<path d="M471 2161 c-14 -4 -27 -13 -29 -20 -3 -9 2 -11 17 -6 20 6 21 3 21
-59 0 -59 -2 -66 -20 -66 -11 0 -20 -4 -20 -10 0 -5 25 -10 55 -10 30 0 55 5
55 10 0 6 -9 10 -20 10 -22 0 -23 5 -21 92 2 62 -2 68 -38 59z"/>
<path d="M1022 2148 c-14 -14 -16 -76 -3 -96 15 -25 55 -10 65 25 15 53 -29
104 -62 71z m46 -44 c4 -42 -22 -64 -38 -34 -16 30 -4 72 18 68 11 -2 18 -14
20 -34z"/>
<path d="M3065 2150 c3 -5 8 -10 11 -10 2 0 4 5 4 10 0 6 -5 10 -11 10 -5 0
-7 -4 -4 -10z"/>
<path d="M3129 2151 c7 -5 26 -7 42 -5 16 2 29 -1 29 -6 0 -6 14 -10 32 -10
62 0 8 19 -71 25 -25 2 -39 0 -32 -4z"/>
<path d="M3020 2138 c0 -4 4 -8 9 -8 6 0 12 4 15 8 3 5 -1 9 -9 9 -8 0 -15 -4
-15 -9z"/>
<path d="M3280 2131 c0 -5 5 -13 10 -16 6 -3 10 -2 10 4 0 5 -4 13 -10 16 -5
3 -10 2 -10 -4z"/>
<path d="M1374 2111 c19 -21 10 -30 -12 -11 -6 6 -10 7 -7 4 3 -4 -2 -12 -10
-18 -14 -10 -14 -13 0 -31 15 -20 15 -20 8 0 -6 18 -5 18 10 6 9 -7 17 -21 17
-30 0 -16 28 -63 30 -51 1 3 3 24 6 47 5 40 4 42 -22 40 -16 -1 -29 4 -32 13
-5 13 -3 13 11 1 12 -9 17 -10 17 -2 0 7 5 9 13 5 7 -5 6 2 -4 16 -9 13 -22
26 -30 28 -9 3 -8 -2 5 -17z m27 -78 c-8 -15 -10 -15 -11 -2 0 17 10 32 18 25
2 -3 -1 -13 -7 -23z"/>
<path d="M3068 2113 c6 -2 18 -2 25 0 6 3 1 5 -13 5 -14 0 -19 -2 -12 -5z"/>
<path d="M2224 2087 c-8 -21 14 -67 31 -67 10 0 15 10 15 28 0 41 -34 70 -46
39z"/>
<path d="M3057 2092 c-22 -3 -25 -6 -14 -17 9 -8 41 -13 89 -14 73 -1 138 12
125 26 -7 6 -154 10 -200 5z"/>
<path d="M2012 2058 c-17 -17 -15 -83 4 -99 34 -28 75 33 55 84 -11 29 -38 36
-59 15z m43 -44 c0 -32 -3 -39 -20 -39 -24 0 -33 48 -14 71 20 24 34 10 34
-32z"/>
<path d="M3256 2054 c-11 -7 -16 -17 -11 -21 4 -5 10 -2 12 5 3 6 9 10 13 7 5
-3 11 -1 14 4 11 17 -8 20 -28 5z"/>
<path d="M3070 2040 c0 -5 5 -10 10 -10 6 0 10 5 10 10 0 6 -4 10 -10 10 -5 0
-10 -4 -10 -10z"/>
<path d="M3181 2041 c-9 -6 -5 -8 13 -8 14 0 26 3 26 8 0 11 -21 11 -39 0z"/>
<path d="M648 1970 c-3 -17 -1 -33 4 -36 4 -3 8 11 8 30 0 44 -6 47 -12 6z"/>
<path d="M1378 1960 c-8 -28 -9 -152 -1 -132 9 22 25 13 18 -10 -5 -18 -4 -20
4 -8 13 19 14 73 2 65 -6 -3 -11 19 -13 52 -2 44 -5 52 -10 33z"/>
<path d="M3123 1944 c-36 -18 -39 -27 -19 -62 11 -21 14 -22 25 -8 8 10 29 16
52 16 33 0 42 -5 59 -32 18 -28 20 -46 17 -128 -2 -52 -7 -104 -11 -115 -4
-12 -1 -28 8 -40 13 -18 16 -18 30 -5 24 23 49 137 44 200 -5 64 -40 144 -74
166 -35 24 -94 27 -131 8z"/>
<path d="M1116 1934 c-4 -10 -2 -13 6 -8 8 5 9 -4 5 -32 -3 -21 -1 -48 3 -59
6 -14 9 1 9 48 1 63 -9 86 -23 51z"/>
<path d="M3378 1943 c-25 -6 -23 -22 2 -20 11 1 20 7 20 14 0 7 -1 12 -2 12
-2 -1 -11 -3 -20 -6z"/>
<path d="M1410 1926 c0 -9 6 -15 13 -13 6 1 11 -6 11 -15 -1 -10 2 -15 7 -12
5 3 9 15 9 26 0 12 -3 18 -7 15 -3 -4 -12 -2 -20 4 -10 9 -13 8 -13 -5z"/>
<path d="M1093 1894 c-3 -8 -2 -19 3 -24 5 -5 9 1 9 16 0 28 -3 30 -12 8z"/>
<path d="M1442 1845 c0 -16 2 -22 5 -12 2 9 2 23 0 30 -3 6 -5 -1 -5 -18z"/>
<path d="M615 1849 c-22 -5 -13 -7 33 -8 34 0 62 1 62 3 0 8 -66 11 -95 5z"/>
<path d="M1097 1824 c3 -7 0 -14 -6 -14 -6 0 -11 -10 -11 -22 0 -19 2 -20 11
-8 9 12 10 10 5 -9 -2 -13 1 -30 8 -37 17 -16 30 -6 15 12 -7 9 -7 19 0 33 12
22 6 47 -14 55 -9 3 -12 0 -8 -10z"/>
<path d="M1420 1803 c0 -13 5 -23 10 -23 13 0 13 11 0 30 -8 12 -10 11 -10 -7z"/>
<path d="M404 1792 c-38 -30 -54 -76 -54 -152 0 -81 16 -128 55 -158 56 -44
123 -22 156 52 38 83 16 219 -42 260 -30 21 -88 20 -115 -2z m102 -53 c14 -15
19 -39 22 -92 4 -100 -24 -148 -80 -134 -34 9 -48 46 -48 123 0 83 19 124 59
124 16 0 36 -9 47 -21z"/>
<path d="M1368 1770 c-2 -22 0 -40 4 -40 5 0 8 18 8 40 0 22 -2 40 -4 40 -2 0
-6 -18 -8 -40z"/>
<path d="M1126 1774 c-9 -24 -7 -28 8 -15 11 9 15 8 20 -5 9 -22 8 -24 -9 -24
-20 0 -19 -20 4 -49 12 -16 20 -20 25 -12 6 9 11 9 21 1 10 -9 13 -7 11 7 -2
10 -11 17 -20 17 -11 -1 -16 6 -16 22 0 26 -20 74 -31 74 -4 0 -10 -7 -13 -16z"/>
<path d="M1397 1744 c-4 -21 -4 -40 -2 -43 3 -2 5 3 5 13 0 9 4 15 9 11 16 -9
20 9 7 34 -13 23 -13 23 -19 -15z"/>
<path d="M732 1738 c-32 -32 -1 -116 33 -88 26 22 14 100 -15 100 -3 0 -11 -5
-18 -12z m38 -43 c0 -28 -4 -35 -20 -35 -16 0 -20 7 -20 35 0 28 4 35 20 35
16 0 20 -7 20 -35z"/>
<path d="M1126 1685 c30 -50 53 -70 65 -58 7 7 8 17 1 28 -7 14 -11 15 -17 5
-6 -10 -16 -4 -38 21 -28 32 -28 32 -11 4z"/>
<path d="M1336 1692 c-2 -4 0 -14 6 -22 8 -12 9 -12 4 3 -3 11 0 17 10 17 10
0 14 -6 11 -15 -9 -22 7 -26 20 -5 10 15 8 19 -10 24 -29 8 -35 7 -41 -2z"/>
<path d="M1292 1673 c1 -5 -3 -18 -10 -30 -7 -13 -11 -23 -10 -24 35 -9 55 2
26 14 -8 3 -7 6 4 6 23 1 34 21 17 32 -17 11 -30 11 -27 2z"/>
<path d="M1238 1657 c-30 -12 -37 -27 -13 -27 8 0 15 5 15 11 0 6 6 9 13 6 8
-3 14 1 14 9 0 8 -1 14 -1 13 -1 -1 -13 -6 -28 -12z"/>
<path d="M1335 1639 c-4 -6 -5 -12 -2 -15 2 -3 7 2 10 11 7 17 1 20 -8 4z"/>
<path d="M1455 1616 c-50 -15 -55 -42 -7 -38 l32 3 0 -85 0 -85 -32 -3 c-21
-2 -33 -8 -33 -18 0 -12 16 -16 74 -18 41 -2 80 -1 87 2 24 9 3 36 -27 36
l-29 0 0 110 c0 121 3 117 -65 96z"/>
<path d="M1603 1570 c-13 -5 -23 -12 -23 -15 0 -4 10 -5 23 -3 20 3 22 -1 25
-54 3 -52 1 -58 -17 -58 -11 0 -23 -4 -26 -10 -4 -6 15 -10 49 -10 31 0 56 5
56 10 0 6 -9 10 -20 10 -18 0 -20 7 -20 70 0 74 -3 78 -47 60z"/>
<path d="M2090 1551 c-14 -27 -13 -84 2 -99 19 -19 30 -14 18 8 -6 12 -10 35
-8 53 2 24 8 33 26 35 30 5 28 22 -3 22 -14 0 -29 -8 -35 -19z"/>
<path d="M672 1549 c-39 -12 -38 -35 2 -31 l27 3 -3 -78 c-3 -77 -3 -78 -30
-81 -58 -7 -25 -22 47 -22 43 0 75 4 75 10 0 6 -13 10 -30 10 l-30 0 0 100 c0
108 1 106 -58 89z"/>
<path d="M2491 1479 c-6 -29 -10 -53 -9 -55 2 -1 24 -5 51 -9 42 -6 47 -5 47
11 0 28 -43 98 -62 102 -12 2 -19 -10 -27 -49z"/>
<path d="M898 1503 c6 -2 12 -22 12 -43 0 -21 -6 -41 -12 -43 -7 -3 3 -6 22
-6 28 0 32 2 18 10 -12 7 -18 22 -18 49 0 32 -4 40 -17 39 -11 0 -13 -3 -5 -6z"/>
<path d="M804 1434 c-8 -30 10 -74 29 -74 31 0 47 43 31 84 -10 27 -53 20 -60
-10z m54 -15 c4 -34 -23 -58 -35 -32 -5 10 -8 24 -7 31 1 6 2 17 3 23 2 22 36
3 39 -22z"/>
<path d="M2066 1388 c-36 -31 -63 -110 -65 -188 -2 -98 13 -106 34 -18 10 40
28 106 41 147 13 41 22 76 20 78 -2 2 -16 -6 -30 -19z"/>
<path d="M993 1388 c-38 -10 -44 -28 -9 -28 22 0 23 -3 22 -57 -1 -52 -3 -58
-23 -61 -47 -7 -21 -22 37 -22 33 0 60 4 60 10 0 6 -11 10 -25 10 -23 0 -24 3
-27 78 l-3 78 -32 -8z"/>
<path d="M2494 1386 c-20 -9 -35 -25 -42 -45 -10 -28 -9 -31 9 -31 19 0 19 -6
17 -132 l-3 -133 -50 -5 c-45 -5 -50 -7 -50 -30 l0 -25 126 -3 c103 -2 128 0
139 13 20 25 -5 45 -56 45 l-44 0 0 180 c0 99 -3 180 -7 180 -5 -1 -22 -7 -39
-14z"/>
<path d="M2555 1370 c-10 -16 4 -30 31 -30 22 0 24 -4 24 -44 0 -24 3 -58 6
-75 6 -28 4 -31 -17 -31 -31 0 -53 -15 -45 -29 10 -16 159 -15 154 2 -3 6 -14
16 -25 21 -15 7 -22 22 -26 56 -8 69 -46 140 -73 140 -13 0 -26 -4 -29 -10z"/>
<path d="M1535 1339 c-12 -19 4 -61 23 -57 19 4 29 45 15 59 -6 6 -8 -3 -5
-22 4 -24 1 -30 -9 -27 -8 3 -14 17 -14 31 1 30 -1 32 -10 16z"/>
<path d="M848 1312 c-65 -19 -83 -33 -74 -58 5 -14 15 -15 56 -10 l50 7 0
-136 0 -135 -44 0 c-46 0 -72 -19 -62 -45 4 -12 29 -15 136 -15 107 0 132 3
136 15 10 26 -16 45 -62 45 l-44 0 0 175 c0 199 8 186 -92 157z"/>
<path d="M1802 1298 c-15 -15 -16 -53 -2 -79 13 -23 24 -24 44 -3 29 28 15 94
-19 94 -6 0 -16 -5 -23 -12z m44 -52 c-3 -14 -13 -26 -21 -26 -20 0 -30 46
-14 66 19 23 44 -5 35 -40z"/>
<path d="M1880 1290 c0 -5 5 -10 10 -10 15 0 12 -67 -2 -73 -7 -3 3 -5 22 -5
19 0 29 2 23 5 -8 3 -13 23 -13 49 0 37 -3 44 -20 44 -11 0 -20 -4 -20 -10z"/>
<path d="M965 1280 c-3 -5 -1 -10 4 -10 6 0 11 5 11 10 0 6 -2 10 -4 10 -3 0
-8 -4 -11 -10z"/>
<path d="M970 1196 c0 -2 7 -7 16 -10 8 -3 12 -2 9 4 -6 10 -25 14 -25 6z"/>
<path d="M771 1161 c-39 -39 -23 -131 23 -131 35 0 48 22 44 76 -2 35 -9 50
-25 61 -19 13 -24 12 -42 -6z m53 -32 c19 -56 -21 -114 -51 -74 -12 17 -10 74
4 98 9 16 38 1 47 -24z"/>
<path d="M1208 1173 c7 -3 16 -2 19 1 4 3 -2 6 -13 5 -11 0 -14 -3 -6 -6z"/>
<path d="M1855 1145 c0 -29 4 -35 20 -34 11 0 14 3 8 6 -7 2 -13 18 -13 34 0
16 -3 29 -7 29 -5 0 -8 -16 -8 -35z"/>
<path d="M982 1154 c-7 -8 -8 -14 -3 -14 10 0 25 19 20 25 -2 1 -10 -3 -17
-11z"/>
<path d="M1914 1157 c-3 -8 -4 -30 -2 -49 2 -28 7 -33 28 -33 23 0 25 4 25 45
0 39 -3 45 -23 48 -13 2 -24 -3 -28 -11z m41 -38 c0 -24 -5 -34 -15 -34 -16 0
-25 37 -16 62 10 26 31 8 31 -28z"/>
<path d="M2451 1124 c0 -11 3 -14 6 -6 3 7 2 16 -1 19 -3 4 -6 -2 -5 -13z"/>
<path d="M2711 1097 c-16 -41 -13 -175 4 -235 18 -61 57 -110 102 -128 39 -17
89 -18 99 -3 11 19 -31 64 -66 69 -54 8 -73 45 -80 153 -4 67 -11 103 -27 132
l-21 40 -11 -28z"/>
<path d="M1500 1066 c0 -2 7 -7 16 -10 8 -3 12 -2 9 4 -6 10 -25 14 -25 6z"/>
<path d="M1510 1020 c-9 -6 -10 -10 -3 -10 6 0 15 5 18 10 8 12 4 12 -15 0z"/>
<path d="M1550 970 c-14 -5 -50 -16 -81 -24 -59 -17 -78 -38 -57 -63 12 -14
26 -14 92 3 l26 6 0 -161 0 -161 -53 0 c-70 0 -94 -22 -61 -55 14 -13 38 -16
143 -14 137 1 164 8 159 42 -3 19 -10 22 -60 25 l-58 3 0 204 c0 219 2 212
-50 195z"/>
<path d="M1820 960 c-13 -8 -12 -10 3 -10 13 0 17 -8 17 -36 0 -23 -6 -42 -17
-50 -16 -12 -14 -13 20 -14 20 0 37 5 37 10 0 6 -6 9 -12 8 -9 -2 -14 14 -16
50 -3 54 -7 58 -32 42z"/>
<path d="M2363 950 c-16 -7 -23 -18 -23 -38 0 -35 9 -45 26 -31 7 6 29 9 50 7
57 -5 78 -40 83 -139 4 -101 -4 -145 -34 -175 -45 -45 -108 -22 -130 47 -5 15
-12 18 -33 13 -44 -11 -46 -20 -17 -66 39 -61 68 -80 126 -81 60 -1 93 21 129
84 22 39 25 55 25 149 0 114 -15 158 -68 209 -29 26 -97 37 -134 21z"/>
<path d="M1427 802 c-19 -21 -22 -83 -7 -113 15 -27 56 -24 76 6 18 28 14 85
-7 111 -16 19 -43 18 -62 -4z m55 -27 c15 -34 0 -80 -27 -80 -15 0 -21 8 -23
29 -8 68 26 103 50 51z"/>
<path d="M2630 730 c-42 -42 -17 -150 34 -150 32 0 48 22 53 74 5 38 2 48 -20
70 -31 31 -41 32 -67 6z m60 -29 c14 -28 13 -64 -4 -87 -31 -40 -68 19 -52 82
8 29 41 32 56 5z"/>
<path d="M1782 690 c0 -19 2 -27 5 -17 2 9 2 25 0 35 -3 9 -5 1 -5 -18z"/>
<path d="M1682 653 c-1 -23 -8 -44 -14 -46 -7 -3 1 -6 17 -6 17 0 25 3 18 7
-6 4 -13 25 -16 47 l-4 40 -1 -42z"/>
<path d="M1125 670 c-3 -5 -1 -10 4 -10 6 0 11 5 11 10 0 6 -2 10 -4 10 -3 0
-8 -4 -11 -10z"/>
<path d="M2075 622 c-125 -6 -89 -52 41 -52 90 0 134 11 134 34 0 16 -71 23
-175 18z"/>
<path d="M1953 613 c-23 -8 -14 -33 12 -33 15 0 25 6 25 14 0 16 -19 25 -37
19z"/>
<path d="M2098 553 c7 -3 16 -2 19 1 4 3 -2 6 -13 5 -11 0 -14 -3 -6 -6z"/>
<path d="M2004 514 c-24 -36 -9 -98 24 -102 33 -5 52 15 52 55 0 71 -43 98
-76 47z m54 -38 c4 -46 -10 -65 -33 -46 -15 13 -21 71 -8 84 18 18 38 -1 41
-38z"/>
<path d="M2226 521 c-4 -5 3 -7 13 -4 22 6 36 -25 26 -58 -10 -29 -39 -19 -46
16 -6 28 -7 28 -8 5 -2 -50 42 -67 61 -25 8 19 8 31 0 50 -12 25 -36 33 -46
16z"/>
<path d="M2096 508 c3 -5 10 -6 15 -3 13 9 11 12 -6 12 -8 0 -12 -4 -9 -9z"/>
<path d="M2111 486 c-20 -24 -10 -70 16 -74 17 -3 24 3 29 24 11 44 -21 79
-45 50z m34 -36 c0 -13 -6 -25 -12 -27 -16 -6 -27 21 -19 43 9 23 31 11 31
-16z"/>
</g>
</svg>
